<svg id="Layer_1" enable-background="new 0 0 493.427 493.427" height="512" viewBox="0 0 493.427 493.427" width="512" xmlns="http://www.w3.org/2000/svg"><g><g><g><g><path d="m491.482 245.323c-1.789-135.242-111.919-242.763-247.167-241.465-56.066.538-107.623 19.927-148.64 52.131-.05.039-.1.078-.15.118-9.11 7.164-14.336 18.187-14.336 29.777v343.066c.487.447.963.904 1.453 1.347h295.188c23.177 0 45.244-10.332 59.766-28.395.083-.103.165-.205.247-.308 34.218-42.701 54.422-97.116 53.639-156.271z" fill="#ecca34"/></g></g></g><g><g><path d="m338.454 79.817c-35.291-32.577-75.062-53.707-130.715-53.707-45.275 0-83.508 11.9-114.702 31.985-31.193 25.19-56.08 57.877-71.907 95.33-12.368 29.267-19.207 61.441-19.207 95.212 0 72.074 31.156 136.865 80.727 181.66h5.725v-255.592c-.852-69.333 118.955-56.293 120.722-56.293 54.085 0 90.66 37.46 101.125 82.801h102.483c-10.413-51.581-38.958-88.818-74.251-121.396z" fill="#dc6920"/></g></g><path d="m79.751 427.628c43.733 40.812 102.425 65.8 166.963 65.8 77.322 0 146.257-35.86 191.118-91.844 4.578-8.609 8.575-18.046 12.644-28.599 5.728-14.854 15.841-58.496 15.841-58.496h-124.742l-2.608 9.427c-5.145 18.598-15.1 34.221-30.433 47.761-14.648 12.937-32.458 19.29-54.447 19.42l-1.575.011c-31.487-.249-55.499-13.601-71.38-39.698-14.482-23.796-22.136-57.692-22.136-98.025 0-.888.004-1.775.012-2.662l.021-1.505c.547-38.824 10.392-129.48 89.789-132.785l1.555-.067c1.004-.027 2.021-.041 3.039-.041 51.88 0 79.157 38.422 86.751 71.323l2.3 9.964h126.012l-2.495-14.969-.142-.737c-10.753-52.981-34.677-96.892-71.115-130.525-36.935-34.094-84.927-51.381-142.643-51.381-69.608 0-128.296 27.277-169.719 78.881-36.297 45.217-56.68 106.123-57.398 171.496-.019 1.738-.009 3.472.004 5.19l.001.876c.006.577.017 1.152.028 1.728l.011.574c-1.503 73.326 27.265 132.979 54.744 168.883z" fill="#5339d3"/><g><g><g><path d="m448.022 339.002c.95-3.83 1.823-7.714 2.612-11.659h-99.277c-5.778 20.884-17.22 38.873-34.315 53.969-16.933 14.956-37.895 22.491-62.879 22.64v.009c-.25.001-.501.005-.751.005-79.004 0-107.273-72.136-107.273-150.581 0-1.451.01-2.9.031-4.348h.004c1.041-73.852 28.817-142.398 102.108-145.449v-.013c1.686-.07 3.396-.105 5.131-.105 53.096 0 89.003 36.775 99.277 81.287h100.61c-.001-.006-.003-.013-.004-.019-10.225-50.629-32.648-91.932-67.292-123.91-34.646-31.982-79.288-47.973-133.924-47.973-141.478 0-212.953 118.307-214.262 237.663-.018 1.661-.007 3.318.004 4.974.001.274-.001.548.001.823.008.745.024 1.489.038 2.234.708 46.139 49.663 225.748 206.903 225.748 61.809 0 119.918-24.07 163.623-67.775 28.836-28.836 43.042-85.533 39.635-77.52z" fill="#3b3896"/></g></g><g><path d="m150.401 473.74c29.562 12.665 39.295 4.965 73.492 4.965 1.996 0 26.806 14.699 28.79 14.651 49.857-1.194 96.014-17.306 134.201-44.027 21.608-16.997 32.868-25.411 52.766-78.568 5.108-13.646 7.938-28.195 10.984-43.418l-94.235 6.658c-5.778 20.884-17.581 34.672-34.677 49.768-17.104 15.106-42.992 20.198-68.31 20.198-79.004 0-107.273-72.136-107.273-150.581 0-1.451.01-2.9.031-4.348.484-34.384 1.791-68.123 15.76-94.136 16.036-29.86 47.178-49.698 86.351-51.326 1.686-.07 3.397-.105 5.131-.105 53.096 0 89.003 36.775 99.276 81.287h100.61c-10.223-50.637-38.247-87.194-72.894-119.176-34.646-31.982-73.689-52.726-128.325-52.726-141.477 0-212.953 118.307-214.262 237.663-.764 69.642 27.106 140.927 71.998 190.047 8.137 8.901 21.28 21.834 40.586 33.174z" fill="#3b3896"/><g><g><g><g><g><path d="m365.918 82.588c21.754 20.08 37.739 44.015 48.362 72.557l39.019 29.613c-10.223-50.637-32.648-91.947-67.295-123.929-34.646-31.982-79.288-47.973-133.924-47.973-.778 0-1.543.023-2.317.031v29.626c.776-.008 1.536-.044 2.317-.044 47.356-.001 84.593 13.122 113.838 40.119z" fill="#7773fa"/></g></g></g></g><g><g><g><g><path d="m248.282 103.589v-29.856c-39.268 1.249-78.596 19.92-103.26 60.315-22.542 36.921-28.033 82.114-28.463 114.989h29.615c1.041-73.852 28.818-142.397 102.108-145.448z" fill="#7773fa"/></g></g></g></g><g><g><g><g><path d="m371.899 356.956h39.543l39.192-29.613h-99.277c-5.778 20.884-17.22 38.873-34.315 53.969-16.933 14.956-37.895 22.491-62.879 22.64v29.612c32.313-.155 60.064-10.257 82.48-30.055 15.302-13.511 27.102-29.105 35.256-46.553z" fill="#7773fa"/></g></g></g></g><path d="m151.036 474.018c29.392 12.493 61.727 19.409 95.678 19.409 1.996 0 3.985-.028 5.97-.076v-28.394c-.203 0-.4.01-.604.01-29.724 0-56.879-5.938-80.712-17.649-70.379-34.579-104.914-116.036-103.924-196.8h-29.614c-.669 60.615 18.941 119.888 52.311 167.296 18.33 26.041 39.742 43.925 60.895 56.204z" fill="#7773fa"/></g><g><g><g><g><path d="m381.941 353.424c-10.787 24.351-25.53 45.251-43.468 61.339-24.956 22.382-54.877 34.212-86.527 34.212-46.2 0-85.674-19.521-114.152-56.454-27.112-35.161-42.043-84.044-42.043-137.646 0-55.875 13.369-103.496 38.663-137.713 27.269-36.889 67.911-56.387 117.532-56.387 30.963 0 60.346 11.355 84.974 32.838 23.978 20.916 42.515 50.431 53.611 85.353l1.299 5.79h8.665l-2.124-8.28c-11.55-36.359-30.93-67.157-56.043-89.063-26.148-22.809-57.402-34.866-90.382-34.866-52.336 0-95.266 20.652-124.148 59.724-26.348 35.643-40.275 84.955-40.275 142.603 0 55.41 15.54 106.078 43.756 142.67 30.095 39.028 71.821 59.657 120.668 59.657 33.711 0 65.531-12.557 92.02-36.314 19.62-17.596 35.557-40.628 46.922-67.464h-8.948z" fill="#7773fa"/></g></g></g></g></g></g><g><g><g><path d="m236.279 178.218 4.944 12.96c2.477 6.492 7.605 11.621 14.097 14.097l12.96 4.944-12.96 4.944c-6.492 2.477-11.621 7.605-14.097 14.097l-4.944 12.96-4.944-12.96c-2.477-6.492-7.605-11.621-14.097-14.097l-12.96-4.944 12.96-4.944c6.492-2.477 11.621-7.605 14.097-14.097z" fill="#fff"/></g></g><g><g><path d="m428.331 213.992 5.587 14.647c2.799 7.338 8.595 13.133 15.932 15.932l14.647 5.587-14.647 5.587c-7.338 2.799-13.133 8.595-15.932 15.932l-5.587 14.647-5.587-14.647c-2.799-7.338-8.595-13.133-15.932-15.932l-14.647-5.587 14.647-5.587c7.338-2.799 13.133-8.595 15.932-15.932z" fill="#fff"/></g></g><g><g><path d="m283.05 285.115c5.112 2.254 9.21 6.352 11.465 11.465 2.254-5.113 6.351-9.21 11.464-11.465-5.113-2.254-9.21-6.352-11.464-11.465-2.255 5.113-6.353 9.211-11.465 11.465z" fill="#fff"/></g></g></g></g></svg>