<svg id="Flat" height="512" viewBox="0 0 512 512" width="512" xmlns="http://www.w3.org/2000/svg"><path d="m256 232-240-96 240-96 240 96z" fill="#b1bd70"/><path d="m256 104-80 32-80-32 80-32z" fill="#3397e8"/><path d="m336 72-80 32-80-32 80-32z" fill="#eb423f"/><path d="m416 104-80 32-80-32 80-32z" fill="#ffb632"/><path d="m256 168-80 32-80-32 80-32z" fill="#ffb632"/><path d="m336 200-80 32-80-32 80-32z" fill="#3397e8"/><path d="m416 168-80 32-80-32 80-32z" fill="#eb423f"/><path d="m256 472-240-96v-240l240 96z" fill="#ffb632"/><path d="m176 200v80l-80-32v-80z" fill="#3397e8"/><path d="m256 232v80l-80-32v-80z" fill="#e9eef2"/><path d="m256 312v80l-80-32v-80z" fill="#eb423f"/><path d="m96 248v80l-80-32v-80z" fill="#3397e8"/><path d="m96 328v80l-80-32v-80z" fill="#eb423f"/><path d="m176 360v80l-80-32v-80z" fill="#b1bd70"/><path d="m496 376-240 96v-240l240-96z" fill="#eb423f"/><path d="m416 168v80l-80 32v-80z" fill="#ffb632"/><path d="m496 136v80l-80 32v-80z" fill="#eb423f"/><path d="m496 216v80l-80 32v-80z" fill="#ffb632"/><path d="m336 280v80l-80 32v-80z" fill="#3397e8"/><path d="m336 360v80l-80 32v-80z" fill="#e9eef2"/><path d="m416 328v80l-80 32v-80z" fill="#3397e8"/><path d="m176 360v80l80 32v-80z" fill="#3397e8"/><path d="m176 136 80-32 80 32-80 32z" fill="#e9eef2"/><path d="m336 280 80-32v80l-80 32z" fill="#b1bd70"/></svg>